<svg class="watch" xmlns="http://www.w3.org/2000/svg" viewBox="0 0 88 136">
    <path style="line-height:normal;text-indent:0;text-align:start;text-decoration-line:none;text-decoration-style:solid;text-decoration-color:#000;text-transform:none;block-progression:tb;white-space:normal;isolation:auto;mix-blend-mode:normal;solid-color:#000;solid-opacity:1" d="M64 20a44.412 44.412 0 0 0-2.297.064c-.347.018-.692.045-1.037.07-.866.066-1.727.148-2.578.262-.87.118-1.729.27-2.582.438a43.67 43.67 0 0 0-3.057.707l-.088.025a43.53 43.53 0 0 0-2.966.94c-.8.282-1.592.577-2.37.904l-.002.002c-.762.32-1.51.67-2.25 1.031a44.03 44.03 0 0 0-2.72 1.441l-.157.09a44.087 44.087 0 0 0-2.548 1.618c-.688.467-1.368.946-2.028 1.451l-.002.002c-.493.377-.978.765-1.455 1.162l.016.016a45.273 45.273 0 0 0-2.955 2.7L24 24v24h24l-9.467-9.467a36.18 36.18 0 0 1 2.985-2.672l.015-.011c.428-.342.866-.67 1.309-.993.178-.129.358-.254.539-.38a35.95 35.95 0 0 1 2.562-1.633c.243-.14.485-.281.73-.416a35.85 35.85 0 0 1 1.225-.643c.22-.11.444-.215.666-.32.336-.16.673-.312 1.014-.461.208-.091.417-.182.627-.27.423-.175.852-.342 1.283-.502.13-.047.256-.1.385-.146.049-.018.1-.032.148-.049.495-.174.994-.336 1.499-.488.217-.066.437-.126.656-.188.381-.107.764-.21 1.15-.304.21-.052.418-.105.63-.153a35.872 35.872 0 0 1 1.651-.338l.153-.029a36.121 36.121 0 0 1 1.797-.262c.21-.025.42-.046.63-.068.424-.044.85-.082 1.278-.111A36.76 36.76 0 0 1 64 28c.612 0 1.221.017 1.826.047.146.007.29.022.436.031.445.028.89.056 1.33.1.248.024.493.06.74.09.337.04.675.077 1.01.127.289.042.574.095.861.144.279.048.558.094.834.148.305.06.606.13.908.198.276.061.552.121.825.19.256.063.51.133.763.202.315.086.628.174.94.268.241.073.48.15.72.228.299.098.596.197.891.301.257.091.512.187.766.283.274.105.547.21.818.32a35.683 35.683 0 0 1 1.533.673c.273.126.546.255.815.388a35.84 35.84 0 0 1 2.168 1.174c.264.155.527.31.787.47.208.13.413.262.619.395.28.182.56.366.836.555.17.117.336.238.504.357.283.203.565.404.841.614.15.113.294.232.442.347.31.244.62.49.922.743.007.006.016.01.023.017.047.04.09.082.137.121.357.303.712.61 1.057.926.107.098.21.201.316.3.3.283.599.566.889.858l.004.004.043.045a36.013 36.013 0 0 1 4.988 6.324l.021.033.004.008c.285.46.56.928.824 1.403l.004.006v.002c.267.478.525.963.77 1.455.24.481.468.969.687 1.462l.016.032.008.017c.207.47.404.948.592 1.428l.06.152c.179.463.348.93.508 1.403l.062.187c.158.473.306.95.444 1.432.016.056.03.112.047.168.142.505.276 1.013.396 1.527l.004.018.006.023a35.98 35.98 0 0 1 .61 3.303c0 .008.002.015.003.023l.006.053c.074.55.137 1.104.186 1.662.093 1.06.15 2.13.15 3.215 0 4.212-.726 8.248-2.047 12h8.367A43.823 43.823 0 0 0 108 64c0-1.082-.053-2.152-.13-3.215a43.937 43.937 0 0 0-.206-2.119c-1.109-9.12-5.016-17.39-10.842-23.92a44.39 44.39 0 0 0-1.3-1.396c-.026-.027-.05-.054-.077-.08l-.023-.024a44.392 44.392 0 0 0-1.234-1.207c-.089-.084-.175-.169-.264-.252a44.402 44.402 0 0 0-1.143-1.021c-.142-.124-.284-.248-.427-.37-.356-.3-.718-.591-1.083-.88a44.268 44.268 0 0 0-.56-.44c-.348-.267-.7-.527-1.057-.783a44.17 44.17 0 0 0-8.924-4.977c-.324-.134-.652-.26-.98-.386-.322-.124-.645-.249-.97-.366-.332-.118-.666-.229-1-.34-.336-.11-.67-.223-1.009-.326-.348-.106-.7-.2-1.052-.298-.323-.09-.645-.182-.971-.264-.398-.1-.8-.19-1.203-.28-.286-.063-.571-.13-.86-.189-.403-.081-.81-.148-1.218-.219-.313-.053-.623-.113-.938-.16-.4-.06-.803-.105-1.207-.154-.31-.038-.619-.082-.931-.113-.41-.041-.825-.067-1.239-.096-.32-.023-.64-.054-.963-.07A44.453 44.453 0 0 0 64 20ZM21.678 52A43.833 43.833 0 0 0 20 64c0 24.253 19.747 44 44 44 .617 0 1.23-.016 1.842-.041.182-.008.363-.021.545-.031a44.351 44.351 0 0 0 1.906-.143c.41-.04.817-.085 1.223-.136.201-.026.403-.05.603-.079.469-.065.935-.14 1.399-.22.122-.022.246-.039.369-.06.6-.11 1.196-.232 1.789-.366l.215-.05c.502-.117 1-.243 1.496-.376.167-.045.333-.092.5-.138.414-.117.826-.24 1.236-.368.155-.048.31-.096.465-.146.538-.175 1.073-.36 1.601-.555l.024-.008c.002 0 .004 0 .006-.002a43.727 43.727 0 0 0 1.732-.683l.024-.01.103-.047c.503-.213 1-.434 1.492-.664l.34-.164a43.848 43.848 0 0 0 2.977-1.567l.185-.105a44.116 44.116 0 0 0 3.012-1.924l.268-.19c.4-.283.796-.574 1.187-.87l.277-.214c.392-.302.778-.61 1.159-.925.052-.044.108-.084.16-.127l-.002-.002a44.53 44.53 0 0 0 2.947-2.71L104 104V80H80l9.459 9.459a36.36 36.36 0 0 1-3.787 3.297c-.123.092-.242.188-.365.28l-.131.091a35.967 35.967 0 0 1-11.666 5.602c-.135.036-.268.076-.403.11a35.804 35.804 0 0 1-2.37.526c-.652.123-1.31.235-1.973.323l-.037.005-.016.002a36.348 36.348 0 0 1-2.594.235c-.7.04-1.405.07-2.117.07-9.342 0-17.836-3.531-24.225-9.336a36.052 36.052 0 0 1-2.44-2.44C31.532 81.837 28 73.343 28 64c0-4.211.725-8.249 2.045-12h-8.367z" transform="translate(-20 4)" color="#000" font-weight="400" font-family="sans-serif" overflow="visible" fill="#fff"/>
    <path class="arrows minute" d="M67.966 53.173 44 68" fill="none" stroke="#ff4700" stroke-width="8"/>
    <path class="arrows hour" d="M58 59.338 44 68" fill="none" stroke="#ff4700" stroke-width="8"/>
    <path class="circle" d="M39.5 67.638a4.5 4.5 0 1 0 9 0 4.5 4.5 0 1 0-9 0" fill="#ff4700"/>
    <path d="M20 36V4h48v32M20 100v32h48v-32" fill="none" stroke="#fff" stroke-width="8"/>
</svg>
